<?xml version="1.0" encoding="utf-8"?>
<!-- Generator: Adobe Illustrator 16.0.4, SVG Export Plug-In . SVG Version: 6.00 Build 0)  -->
<!DOCTYPE svg PUBLIC "-//W3C//DTD SVG 1.1//EN" "http://www.w3.org/Graphics/SVG/1.1/DTD/svg11.dtd">
<svg version="1.1" id="Layer_1" xmlns="http://www.w3.org/2000/svg" xmlns:xlink="http://www.w3.org/1999/xlink" x="0px" y="0px"
	 width="193.569px" height="130.813px" viewBox="0 0 193.569 130.813" enable-background="new 0 0 193.569 130.813"
	 xml:space="preserve">
<g>
	<defs>
		<rect id="SVGID_1_" width="193.569" height="130.813"/>
	</defs>
	<clipPath id="SVGID_2_">
		<use xlink:href="#SVGID_1_"  overflow="visible"/>
	</clipPath>
	
		<polyline clip-path="url(#SVGID_2_)" fill="none" stroke="#00B0F5" stroke-width="3" stroke-linecap="round" stroke-linejoin="round" stroke-miterlimit="10" points="
		25.063,70.557 25.063,55.179 1.506,55.179 1.506,70.557 	"/>
</g>
<polyline fill="none" stroke="#00B0F5" stroke-width="3" stroke-linecap="round" stroke-linejoin="round" stroke-miterlimit="10" points="
	25.063,55.179 56.356,45.179 86.126,55.179 "/>
<g>
	<defs>
		<rect id="SVGID_3_" width="193.569" height="130.813"/>
	</defs>
	<clipPath id="SVGID_4_">
		<use xlink:href="#SVGID_3_"  overflow="visible"/>
	</clipPath>
	
		<line clip-path="url(#SVGID_4_)" fill="none" stroke="#00B0F5" stroke-width="3" stroke-linecap="round" stroke-linejoin="round" stroke-miterlimit="10" x1="1.507" y1="70.557" x2="1.507" y2="108.308"/>
</g>
<line fill="none" stroke="#00B0F5" stroke-width="3" stroke-linecap="round" stroke-linejoin="round" stroke-miterlimit="10" x1="25.063" y1="70.557" x2="25.063" y2="108.308"/>
<polyline fill="none" stroke="#00B0F5" stroke-width="3" stroke-linecap="round" stroke-linejoin="round" stroke-miterlimit="10" points="
	86.127,70.557 86.127,55.179 109.684,55.179 109.684,70.557 "/>
<line fill="none" stroke="#00B0F5" stroke-width="3" stroke-linecap="round" stroke-linejoin="round" stroke-miterlimit="10" x1="109.684" y1="70.557" x2="109.684" y2="108.308"/>
<line fill="none" stroke="#00B0F5" stroke-width="3" stroke-linecap="round" stroke-linejoin="round" stroke-miterlimit="10" x1="86.127" y1="70.557" x2="86.127" y2="108.308"/>
<polyline fill="none" stroke="#00B0F5" stroke-width="3" stroke-linecap="round" stroke-linejoin="round" stroke-miterlimit="10" points="
	56.329,40.618 50.359,40.618 40.563,40.618 30.828,40.618 "/>
<polyline fill="none" stroke="#00B0F5" stroke-width="3" stroke-linecap="round" stroke-linejoin="round" stroke-miterlimit="10" points="
	81.847,40.618 72.051,40.618 56.987,40.618 "/>
<polyline fill="none" stroke="#00B0F5" stroke-width="3" stroke-linecap="round" stroke-linejoin="round" stroke-miterlimit="10" points="
	52.294,20.208 52.294,15.146 52.294,12.098 56.329,8.968 "/>
<g>
	<defs>
		<rect id="SVGID_5_" width="193.569" height="130.813"/>
	</defs>
	<clipPath id="SVGID_6_">
		<use xlink:href="#SVGID_5_"  overflow="visible"/>
	</clipPath>
	
		<line clip-path="url(#SVGID_6_)" fill="none" stroke="#00B0F5" stroke-width="3" stroke-linecap="round" stroke-linejoin="round" stroke-miterlimit="10" x1="56.334" y1="8.965" x2="56.334" y2="1.5"/>
</g>
<polyline fill="none" stroke="#00B0F5" stroke-width="3" stroke-linecap="round" stroke-linejoin="round" stroke-miterlimit="10" points="
	56.334,8.967 60.369,12.097 60.369,15.146 60.369,20.208 "/>
<g>
	<defs>
		<rect id="SVGID_7_" width="193.569" height="130.813"/>
	</defs>
	<clipPath id="SVGID_8_">
		<use xlink:href="#SVGID_7_"  overflow="visible"/>
	</clipPath>
	
		<path clip-path="url(#SVGID_8_)" fill="none" stroke="#00B0F5" stroke-width="3" stroke-linecap="round" stroke-linejoin="round" stroke-miterlimit="10" d="
		M81.847,40.621c-0.216-0.891-0.522-1.83-0.919-2.806c-0.595-1.465-1.405-3.014-2.486-4.6c-5.206-7.566-13.835-11.483-17.42-12.922
		h-2.666h-2.018h-2.017h-2.685c-3.585,1.439-12.196,5.356-17.402,12.922c-1.1,1.586-1.91,3.135-2.487,4.6
		c-0.396,0.976-0.702,1.915-0.919,2.806"/>
	
		<path clip-path="url(#SVGID_8_)" fill="none" stroke="#00B0F5" stroke-width="3" stroke-linecap="round" stroke-linejoin="round" stroke-miterlimit="10" d="
		M42.646,40.621c-0.019-2.013,0.252-4.429,1.207-7.102c2.287-6.442,7.314-10.883,10.467-13.226"/>
	
		<path clip-path="url(#SVGID_8_)" fill="none" stroke="#00B0F5" stroke-width="3" stroke-linecap="round" stroke-linejoin="round" stroke-miterlimit="10" d="
		M58.355,20.293c2.828,2.038,7.53,5.967,10.106,11.799c1.477,3.295,1.837,6.26,1.837,8.529"/>
	
		<path clip-path="url(#SVGID_8_)" fill="none" stroke="#00B0F5" stroke-width="3" stroke-linecap="round" stroke-linejoin="round" stroke-miterlimit="10" d="
		M56.986,40.621c-0.217-6.772-0.433-13.544-0.648-20.328"/>
	
		<line clip-path="url(#SVGID_8_)" fill="none" stroke="#00B0F5" stroke-width="3" stroke-linecap="round" stroke-linejoin="round" stroke-miterlimit="10" x1="30.828" y1="40.618" x2="30.828" y2="52.532"/>
	
		<line clip-path="url(#SVGID_8_)" fill="none" stroke="#00B0F5" stroke-width="3" stroke-linecap="round" stroke-linejoin="round" stroke-miterlimit="10" x1="81.847" y1="40.618" x2="81.847" y2="52.532"/>
	
		<line clip-path="url(#SVGID_8_)" fill="none" stroke="#00B0F5" stroke-width="3" stroke-linecap="round" stroke-linejoin="round" stroke-miterlimit="10" x1="13.283" y1="53.965" x2="13.283" y2="36.393"/>
	
		<path clip-path="url(#SVGID_8_)" fill="none" stroke="#00B0F5" stroke-width="3" stroke-linecap="round" stroke-linejoin="round" stroke-miterlimit="10" d="
		M24.744,53.966c-0.098-0.4-0.235-0.822-0.413-1.261c-0.267-0.657-0.631-1.354-1.117-2.066c-2.338-3.399-6.215-5.158-7.825-5.805
		h-1.198h-0.906h-0.906h-1.206c-1.611,0.647-5.479,2.406-7.818,5.805c-0.493,0.712-0.857,1.409-1.117,2.066
		c-0.178,0.439-0.315,0.861-0.412,1.261"/>
	
		<line clip-path="url(#SVGID_8_)" fill="none" stroke="#00B0F5" stroke-width="3" stroke-linecap="round" stroke-linejoin="round" stroke-miterlimit="10" x1="97.903" y1="53.965" x2="97.903" y2="36.393"/>
	
		<path clip-path="url(#SVGID_8_)" fill="none" stroke="#00B0F5" stroke-width="3" stroke-linecap="round" stroke-linejoin="round" stroke-miterlimit="10" d="
		M109.364,53.966c-0.099-0.4-0.235-0.822-0.413-1.261c-0.267-0.657-0.631-1.354-1.116-2.066c-2.339-3.399-6.216-5.158-7.826-5.805
		h-1.197h-0.906h-0.906h-1.206c-1.611,0.647-5.479,2.406-7.818,5.805c-0.493,0.712-0.857,1.409-1.116,2.066
		c-0.179,0.439-0.316,0.861-0.413,1.261"/>
	
		<line clip-path="url(#SVGID_8_)" fill="none" stroke="#00B0F5" stroke-width="3" stroke-linecap="round" stroke-linejoin="round" stroke-miterlimit="10" x1="161.172" y1="71.654" x2="161.172" y2="54.082"/>
	
		<path clip-path="url(#SVGID_8_)" fill="none" stroke="#00B0F5" stroke-width="3" stroke-linecap="round" stroke-linejoin="round" stroke-miterlimit="10" d="
		M171.472,71.656c-0.087-0.4-0.211-0.822-0.371-1.262c-0.239-0.657-0.567-1.354-1.003-2.065c-2.104-3.399-5.586-5.158-7.033-5.805
		h-1.077h-0.814h-0.814h-1.083c-1.449,0.647-4.925,2.406-7.026,5.805c-0.443,0.712-0.771,1.408-1.005,2.065
		c-0.159,0.439-0.282,0.861-0.37,1.262"/>
	
		<line clip-path="url(#SVGID_8_)" fill="none" stroke="#00B0F5" stroke-width="3" stroke-linecap="round" stroke-linejoin="round" stroke-miterlimit="10" x1="41.91" y1="97.141" x2="41.91" y2="109.055"/>
	
		<line clip-path="url(#SVGID_8_)" fill="none" stroke="#00B0F5" stroke-width="3" stroke-linecap="round" stroke-linejoin="round" stroke-miterlimit="10" x1="51.294" y1="93.266" x2="51.294" y2="109.055"/>
	
		<line clip-path="url(#SVGID_8_)" fill="none" stroke="#00B0F5" stroke-width="3" stroke-linecap="round" stroke-linejoin="round" stroke-miterlimit="10" x1="60.678" y1="93.89" x2="60.678" y2="109.055"/>
	
		<line clip-path="url(#SVGID_8_)" fill="none" stroke="#00B0F5" stroke-width="3" stroke-linecap="round" stroke-linejoin="round" stroke-miterlimit="10" x1="70.062" y1="97.141" x2="70.062" y2="109.055"/>
	
		<polyline clip-path="url(#SVGID_8_)" fill="none" stroke="#00B0F5" stroke-width="3" stroke-linecap="round" stroke-linejoin="round" stroke-miterlimit="10" points="
		1.5,62.868 13.723,62.868 37.01,62.868 49.231,62.868 	"/>
	
		<polyline clip-path="url(#SVGID_8_)" fill="none" stroke="#00B0F5" stroke-width="3" stroke-linecap="round" stroke-linejoin="round" stroke-miterlimit="10" points="
		63.646,62.868 75.159,62.868 97.096,62.868 108.608,62.868 	"/>
	
		<line clip-path="url(#SVGID_8_)" fill="none" stroke="#00B0F5" stroke-width="3" stroke-linecap="round" stroke-linejoin="round" stroke-miterlimit="10" x1="1.507" y1="108.308" x2="25.063" y2="108.308"/>
	
		<line clip-path="url(#SVGID_8_)" fill="none" stroke="#00B0F5" stroke-width="3" stroke-linecap="round" stroke-linejoin="round" stroke-miterlimit="10" x1="86.127" y1="108.308" x2="109.684" y2="108.308"/>
	
		<polyline clip-path="url(#SVGID_8_)" fill="none" stroke="#00B0F5" stroke-width="3" stroke-linecap="round" stroke-linejoin="round" stroke-miterlimit="10" points="
		109.688,108.303 109.688,129.289 1.5,129.289 1.5,108.303 	"/>
	
		<line clip-path="url(#SVGID_8_)" fill="none" stroke="#00B0F5" stroke-width="3" stroke-linecap="round" stroke-linejoin="round" stroke-miterlimit="10" x1="25.059" y1="129.289" x2="25.059" y2="108.303"/>
	
		<line clip-path="url(#SVGID_8_)" fill="none" stroke="#00B0F5" stroke-width="3" stroke-linecap="round" stroke-linejoin="round" stroke-miterlimit="10" x1="86.13" y1="129.289" x2="86.13" y2="108.303"/>
	
		<path clip-path="url(#SVGID_8_)" fill="none" stroke="#00B0F5" stroke-width="3" stroke-linecap="round" stroke-linejoin="round" stroke-miterlimit="10" d="
		M6.828,129.289v-7.917c0-3.646,2.828-6.622,6.302-6.622c1.736,0,3.317,0.749,4.453,1.944c1.136,1.194,1.848,2.854,1.848,4.678
		v7.917"/>
	
		<path clip-path="url(#SVGID_8_)" fill="none" stroke="#00B0F5" stroke-width="3" stroke-linecap="round" stroke-linejoin="round" stroke-miterlimit="10" d="
		M6.828,108.303V84.234c0-3.645,2.828-6.622,6.302-6.622c1.736,0,3.317,0.749,4.453,1.944s1.848,2.855,1.848,4.678v24.069"/>
	
		<path clip-path="url(#SVGID_8_)" fill="none" stroke="#00B0F5" stroke-width="3" stroke-linecap="round" stroke-linejoin="round" stroke-miterlimit="10" d="
		M91.603,129.289v-7.917c0-3.646,2.827-6.622,6.301-6.622c1.737,0,3.317,0.749,4.453,1.944c1.136,1.194,1.849,2.854,1.849,4.678
		v7.917"/>
	
		<path clip-path="url(#SVGID_8_)" fill="none" stroke="#00B0F5" stroke-width="3" stroke-linecap="round" stroke-linejoin="round" stroke-miterlimit="10" d="
		M91.603,108.303V84.234c0-3.645,2.827-6.622,6.301-6.622c1.737,0,3.317,0.749,4.453,1.944s1.849,2.855,1.849,4.678v24.069"/>
	
		<path clip-path="url(#SVGID_8_)" fill="none" stroke="#00B0F5" stroke-width="3" stroke-linecap="round" stroke-linejoin="round" stroke-miterlimit="10" d="
		M33.897,109.966c0.248-9.05,9.456-16.361,20.465-17.076c12.334-0.801,24.068,6.865,24.454,17.076H33.897z"/>
	
		<line clip-path="url(#SVGID_8_)" fill="none" stroke="#00B0F5" stroke-width="3" stroke-linecap="round" stroke-linejoin="round" stroke-miterlimit="10" x1="33.897" y1="109.966" x2="33.897" y2="129.293"/>
	
		<line clip-path="url(#SVGID_8_)" fill="none" stroke="#00B0F5" stroke-width="3" stroke-linecap="round" stroke-linejoin="round" stroke-miterlimit="10" x1="78.816" y1="109.966" x2="78.816" y2="129.293"/>
	
		<circle clip-path="url(#SVGID_8_)" fill="none" stroke="#00B0F5" stroke-width="3" stroke-linecap="round" stroke-linejoin="round" stroke-miterlimit="10" cx="55.595" cy="62.868" r="6.364"/>
	
		<rect x="33.897" y="75.487" clip-path="url(#SVGID_8_)" fill="none" stroke="#00B0F5" stroke-width="3" stroke-linecap="round" stroke-linejoin="round" stroke-miterlimit="10" width="7.329" height="8.25"/>
	
		<rect x="46.428" y="75.487" clip-path="url(#SVGID_8_)" fill="none" stroke="#00B0F5" stroke-width="3" stroke-linecap="round" stroke-linejoin="round" stroke-miterlimit="10" width="7.329" height="8.25"/>
	
		<rect x="58.957" y="75.487" clip-path="url(#SVGID_8_)" fill="none" stroke="#00B0F5" stroke-width="3" stroke-linecap="round" stroke-linejoin="round" stroke-miterlimit="10" width="7.329" height="8.25"/>
	
		<rect x="71.487" y="75.487" clip-path="url(#SVGID_8_)" fill="none" stroke="#00B0F5" stroke-width="3" stroke-linecap="round" stroke-linejoin="round" stroke-miterlimit="10" width="7.329" height="8.25"/>
	
		<line clip-path="url(#SVGID_8_)" fill="none" stroke="#00B0F5" stroke-width="3" stroke-linecap="round" stroke-linejoin="round" stroke-miterlimit="10" x1="111.153" y1="112.864" x2="128.802" y2="112.864"/>
	
		<path clip-path="url(#SVGID_8_)" fill="none" stroke="#00B0F5" stroke-width="3" stroke-linecap="round" stroke-linejoin="round" stroke-miterlimit="10" d="
		M115.257,128.277v-5.932c0-2.731,2.119-4.961,4.722-4.961c1.3,0,2.485,0.561,3.336,1.456c0.852,0.895,1.384,2.14,1.384,3.505v5.932
		"/>
	
		<path clip-path="url(#SVGID_8_)" fill="none" stroke="#00B0F5" stroke-width="3" stroke-linecap="round" stroke-linejoin="round" stroke-miterlimit="10" d="
		M115.257,112.554V94.521c0-2.731,2.119-4.961,4.722-4.961c1.3,0,2.485,0.561,3.336,1.456c0.852,0.895,1.384,2.14,1.384,3.505
		v18.033"/>
	
		<rect x="109.679" y="73.632" clip-path="url(#SVGID_8_)" fill="none" stroke="#00B0F5" stroke-width="3" stroke-linecap="round" stroke-linejoin="round" stroke-miterlimit="10" width="20.599" height="55.681"/>
	
		<line clip-path="url(#SVGID_8_)" fill="none" stroke="#00B0F5" stroke-width="3" stroke-linecap="round" stroke-linejoin="round" stroke-miterlimit="10" x1="131.751" y1="112.864" x2="149.399" y2="112.864"/>
	
		<path clip-path="url(#SVGID_8_)" fill="none" stroke="#00B0F5" stroke-width="3" stroke-linecap="round" stroke-linejoin="round" stroke-miterlimit="10" d="
		M135.854,128.277v-5.932c0-2.731,2.119-4.961,4.722-4.961c1.3,0,2.485,0.561,3.336,1.456c0.851,0.895,1.385,2.14,1.385,3.505v5.932
		"/>
	
		<path clip-path="url(#SVGID_8_)" fill="none" stroke="#00B0F5" stroke-width="3" stroke-linecap="round" stroke-linejoin="round" stroke-miterlimit="10" d="
		M135.854,112.554V94.521c0-2.731,2.119-4.961,4.722-4.961c1.3,0,2.485,0.561,3.336,1.456c0.851,0.895,1.385,2.14,1.385,3.505
		v18.033"/>
	
		<rect x="130.277" y="73.632" clip-path="url(#SVGID_8_)" fill="none" stroke="#00B0F5" stroke-width="3" stroke-linecap="round" stroke-linejoin="round" stroke-miterlimit="10" width="20.597" height="55.681"/>
	
		<line clip-path="url(#SVGID_8_)" fill="none" stroke="#00B0F5" stroke-width="3" stroke-linecap="round" stroke-linejoin="round" stroke-miterlimit="10" x1="152.349" y1="112.864" x2="169.997" y2="112.864"/>
	
		<path clip-path="url(#SVGID_8_)" fill="none" stroke="#00B0F5" stroke-width="3" stroke-linecap="round" stroke-linejoin="round" stroke-miterlimit="10" d="
		M156.452,128.277v-5.932c0-2.731,2.118-4.961,4.721-4.961c1.301,0,2.486,0.561,3.337,1.456c0.851,0.895,1.384,2.14,1.384,3.505
		v5.932"/>
	
		<path clip-path="url(#SVGID_8_)" fill="none" stroke="#00B0F5" stroke-width="3" stroke-linecap="round" stroke-linejoin="round" stroke-miterlimit="10" d="
		M156.452,112.554V94.521c0-2.731,2.118-4.961,4.721-4.961c1.301,0,2.486,0.561,3.337,1.456c0.851,0.895,1.384,2.14,1.384,3.505
		v18.033"/>
	
		<rect x="150.874" y="73.632" clip-path="url(#SVGID_8_)" fill="none" stroke="#00B0F5" stroke-width="3" stroke-linecap="round" stroke-linejoin="round" stroke-miterlimit="10" width="20.598" height="55.681"/>
	
		<line clip-path="url(#SVGID_8_)" fill="none" stroke="#00B0F5" stroke-width="3" stroke-linecap="round" stroke-linejoin="round" stroke-miterlimit="10" x1="172.946" y1="112.864" x2="190.595" y2="112.864"/>
	
		<path clip-path="url(#SVGID_8_)" fill="none" stroke="#00B0F5" stroke-width="3" stroke-linecap="round" stroke-linejoin="round" stroke-miterlimit="10" d="
		M177.05,128.277v-5.932c0-2.731,2.118-4.961,4.721-4.961c1.3,0,2.485,0.561,3.337,1.456c0.851,0.895,1.384,2.14,1.384,3.505v5.932"
		/>
	
		<path clip-path="url(#SVGID_8_)" fill="none" stroke="#00B0F5" stroke-width="3" stroke-linecap="round" stroke-linejoin="round" stroke-miterlimit="10" d="
		M177.05,112.554V94.521c0-2.731,2.118-4.961,4.721-4.961c1.3,0,2.485,0.561,3.337,1.456c0.851,0.895,1.384,2.14,1.384,3.505v18.033
		"/>
	
		<rect x="171.471" y="73.632" clip-path="url(#SVGID_8_)" fill="none" stroke="#00B0F5" stroke-width="3" stroke-linecap="round" stroke-linejoin="round" stroke-miterlimit="10" width="20.599" height="55.681"/>
	
		<line clip-path="url(#SVGID_8_)" fill="none" stroke="#00B0F5" stroke-width="3" stroke-linecap="round" stroke-linejoin="round" stroke-miterlimit="10" x1="78.816" y1="75.487" x2="33.897" y2="75.487"/>
</g>
</svg>
